<svg id="Layer_1" data-name="Layer 1" xmlns="http://www.w3.org/2000/svg" viewBox="0 0 1080 1080"><defs><style>.cls-1{fill:#fc3c3c;}.cls-2{fill:#283149;}.cls-3{fill:#fff;}</style></defs><path class="cls-1" d="M547.26,541.74V823.52c-80.89-28.63-175.53-45.09-276.68-45.09-70.09,0-137,7.9-198.48,22.29a11.66,11.66,0,0,1,5.64-7.57L303.53,662.79,525.07,534.88l5.16-3a11.35,11.35,0,0,1,17,9.83Z"/><path class="cls-2" d="M547.26,823.52v249.66a6.81,6.81,0,0,1-10.21,5.9l-5.79-3.34a18.86,18.86,0,0,1-7-7.24,486.81,486.81,0,0,0-183.4-186.59A487,487,0,0,0,87.53,816.38h-.41a19,19,0,0,1-9.38-2.48,11.93,11.93,0,0,1-5.64-13.18c61.43-14.39,128.39-22.29,198.48-22.29C371.73,778.43,466.37,794.89,547.26,823.52Z"/><path class="cls-2" d="M788.61,403.42l-17.32,10L549.74,541.33l-5.16,3a11.35,11.35,0,0,1-16.8-7.55,11.11,11.11,0,0,1-.22-2.26V12a11.78,11.78,0,0,1,3.72-8.69c18.26,60.41,44.89,122.36,79.93,183.07C661.78,274,723.37,347.69,788.61,403.42Z"/><path class="cls-1" d="M1004.83,278.6,788.61,403.42c-65.24-55.73-126.83-129.46-177.4-217-35-60.71-61.67-122.66-79.93-183.07a12,12,0,0,1,14.24-1.68,18.67,18.67,0,0,1,7,7.23A487,487,0,0,0,736,195.45,487,487,0,0,0,989.24,261a18.73,18.73,0,0,1,9.79,2.49l5.8,3.34A6.81,6.81,0,0,1,1004.83,278.6Z"/><path class="cls-3" d="M440.15,737.08l-25.19,19c1.31-10.65,2.56-20.81,3.84-31.28l-31.29,3.82c6.51-8.63,12.69-16.83,19-25.19l-29-12.31,29-12.32-18.63-24.71.17-.42,30.76,3.77c-1.27-10.37-2.53-20.58-3.84-31.29l25.19,19,12.31-29,12.33,29c8.32-6.26,16.5-12.44,25.17-19-1.3,10.62-2.54,20.77-3.82,31.29l31.28-3.84-19,25.17,29,12.32-29,12.33c6.27,8.33,12.48,16.56,19,25.17l-31.28-3.84c1.27,10.39,2.51,20.56,3.82,31.29l-25.17-19-12.32,29C448.27,756.2,444.25,746.75,440.15,737.08Z"/><path class="cls-3" d="M826.28,276.72l13.6-8c-.77,5.4-1.47,10.37-2.21,15.63l15.63-2.19-8,13.57,15.29,4L848,309.2l6.24,4.68A82.45,82.45,0,0,0,887.73,275a66.38,66.38,0,0,1-4.35,25.18c-5.17,13.94-13.54,25.68-25.67,34.26-25.55,18.07-52.86,20.44-80.46,5.8C751.56,326.64,739,304,737.76,275c7.23,16.42,18.27,29.49,33.69,38.84l6.26-4.68-12.64-9.49,15.29-4-8.06-13.62,15.64,2.2c-.72-5.18-1.42-10.19-2.17-15.64l13.59,8c1.31-5,2.56-9.91,3.95-15.28l9.53,12.61,9.47-12.62C823.68,266.7,824.93,271.54,826.28,276.72Z"/></svg>